<svg width="37" height="17" viewBox="0 0 37 17" fill="none" xmlns="http://www.w3.org/2000/svg">
<path d="M1.12 10.232C1.12 9.37867 1.38667 8.488 1.92 7.56C2.45333 6.62133 3.33333 5.55467 4.56 4.36L3.792 3.688L4.624 2.68C5.95733 3.72533 7.00267 4.65333 7.76 5.464C8.528 6.27467 9.07733 7.03733 9.408 7.752C9.73867 8.46667 9.904 9.20267 9.904 9.96C9.904 10.568 9.78667 11.1067 9.552 11.576C9.31733 12.0347 8.99733 12.3867 8.592 12.632C8.19733 12.8773 7.76 13 7.28 13C6.85333 13 6.48 12.936 6.16 12.808C5.85067 12.68 5.60533 12.504 5.424 12.28C5.24267 12.504 4.992 12.68 4.672 12.808C4.36267 12.936 4.016 13 3.632 13C2.84267 13 2.224 12.7547 1.776 12.264C1.33867 11.7733 1.12 11.096 1.12 10.232ZM8.576 9.992C8.576 9.20267 8.33067 8.43467 7.84 7.688C7.36 6.94133 6.58133 6.10933 5.504 5.192C4.45867 6.152 3.68533 7.032 3.184 7.832C2.69333 8.62133 2.448 9.39467 2.448 10.152C2.448 10.6427 2.55467 11.0107 2.768 11.256C2.992 11.5013 3.312 11.624 3.728 11.624C4.144 11.624 4.464 11.5013 4.688 11.256C4.92267 11.0107 5.04 10.6747 5.04 10.248V9.144H6.24V10.216C6.24 10.5787 6.19733 10.888 6.112 11.144C6.35733 11.464 6.74667 11.624 7.28 11.624C7.65333 11.624 7.96267 11.48 8.208 11.192C8.45333 10.8933 8.576 10.4933 8.576 9.992Z" fill="#0B132A"/>
<path d="M34.576 5.51714L30.5752 4.94058L28.7868 1.34527C28.7379 1.24683 28.6575 1.16714 28.5583 1.11871C28.3093 0.996832 28.0068 1.09839 27.8823 1.34527L26.0938 4.94058L22.0931 5.51714C21.9828 5.53277 21.8819 5.58433 21.8047 5.66246C21.7114 5.75759 21.66 5.88558 21.6617 6.0183C21.6635 6.15103 21.7183 6.27762 21.8142 6.37027L24.7088 9.16871L24.0249 13.1203C24.0089 13.2122 24.0191 13.3067 24.0545 13.3932C24.0899 13.4796 24.149 13.5545 24.2251 13.6093C24.3013 13.6641 24.3914 13.6967 24.4852 13.7033C24.579 13.71 24.6729 13.6904 24.7561 13.6468L28.3345 11.7812L31.913 13.6468C32.0107 13.6984 32.1241 13.7156 32.2329 13.6968C32.507 13.65 32.6914 13.3921 32.6441 13.1203L31.9603 9.16871L34.8549 6.37027C34.9336 6.29371 34.9856 6.19371 35.0014 6.08433C35.0439 5.81089 34.8517 5.55777 34.576 5.51714Z" fill="#FEA250"/>
</svg>
