<svg width="33" height="36" viewBox="0 0 33 36" fill="none" xmlns="http://www.w3.org/2000/svg">
<path opacity="0.3" fill-rule="evenodd" clip-rule="evenodd" d="M14.7541 12.8503C15.0466 12.5271 15.4621 12.3428 15.898 12.3428H22.1723C25.0252 12.3428 27.3577 12.8805 29.0563 14.4494C30.7345 15.9996 31.502 18.2922 31.888 21.0798C31.8905 21.0982 31.8927 21.1166 31.8946 21.1351L32.471 26.7957C32.9725 31.8355 29.2181 36 24.1471 36C19.9622 36 16.234 32.6456 15.8032 28.4644L15.8027 28.4595L14.3627 14.0389C14.3194 13.6052 14.4616 13.1734 14.7541 12.8503ZM17.6026 15.4285L18.8727 28.1481C18.8728 28.1489 18.8729 28.1496 18.8729 28.1503C19.1427 30.7566 21.5442 32.9142 24.1471 32.9142C27.3864 32.9142 29.721 30.3322 29.4006 27.103C29.4005 27.1024 29.4007 27.1036 29.4006 27.103L28.8276 21.4758C28.4723 18.9319 27.8423 17.5288 26.9625 16.7161C26.1 15.9194 24.7091 15.4285 22.1723 15.4285H17.6026Z" fill="#F53838"/>
<path fill-rule="evenodd" clip-rule="evenodd" d="M17.7618 23.1497C17.4693 23.4729 17.0538 23.6572 16.6179 23.6572H10.3436C7.4907 23.6572 5.15817 23.1195 3.45959 21.5506C1.78133 20.0004 1.01386 17.7078 0.627893 14.9202C0.625345 14.9018 0.623127 14.8834 0.621246 14.8649L0.0448856 9.20425C-0.456579 4.16448 3.29772 4.3869e-05 8.36875 4.3869e-05C12.5536 4.3869e-05 16.2818 3.35437 16.7126 7.53564L16.7131 7.54047L18.1531 21.9611C18.1964 22.3948 18.0543 22.8266 17.7618 23.1497ZM14.9133 20.5715L13.6432 7.85189L13.6429 7.84965C13.3732 5.24335 10.9717 3.08576 8.36875 3.08576C5.12948 3.08576 2.79489 5.66785 3.11527 8.897L3.68823 14.5242C4.04353 17.0681 4.67356 18.4712 5.55333 19.2839C6.41589 20.0806 7.8068 20.5715 10.3436 20.5715H14.9133Z" fill="#F53838"/>
<path d="M8.45898 9H8.478" stroke="#F53838" stroke-width="4.0645" stroke-linecap="round" stroke-linejoin="round"/>
<path d="M23.812 27.5295H23.831" stroke="#F6BEBE" stroke-width="4.0645" stroke-linecap="round" stroke-linejoin="round"/>
</svg>
