<svg width="22" height="18" viewBox="0 0 22 18" fill="none" xmlns="http://www.w3.org/2000/svg">
<path d="M2.10654 7.74986H17.057L12.4811 2.29986C12.2671 2.04459 12.1642 1.71548 12.1949 1.38495C12.2256 1.05442 12.3875 0.74953 12.645 0.537356C12.9024 0.325183 13.2343 0.223106 13.5676 0.25358C13.9009 0.284055 14.2084 0.444586 14.4224 0.699856L20.7253 8.19986C20.7677 8.25951 20.8056 8.32218 20.8387 8.38736C20.8387 8.44986 20.8387 8.48736 20.927 8.54986C20.9841 8.69318 21.014 8.84575 21.0152 8.99986C21.014 9.15397 20.9841 9.30653 20.927 9.44986C20.927 9.51236 20.927 9.54986 20.8387 9.61236C20.8056 9.67753 20.7677 9.7402 20.7253 9.79986L14.4224 17.2999C14.3039 17.441 14.1554 17.5544 13.9877 17.6322C13.8199 17.71 13.6369 17.7502 13.4517 17.7499C13.1572 17.7504 12.8718 17.6487 12.645 17.4624C12.5173 17.3574 12.4118 17.2285 12.3345 17.0831C12.2571 16.9377 12.2095 16.7785 12.1943 16.6148C12.179 16.4511 12.1965 16.286 12.2458 16.129C12.295 15.972 12.3749 15.8262 12.4811 15.6999L17.057 10.2499H2.10654C1.77222 10.2499 1.45159 10.1182 1.21518 9.88374C0.978777 9.64932 0.845968 9.33138 0.845968 8.99986C0.845968 8.66834 0.978777 8.35039 1.21518 8.11597C1.45159 7.88155 1.77222 7.74986 2.10654 7.74986Z" fill="white"/>
</svg>
